<mxfile host="app.diagrams.net" agent="Mozilla/5.0 (Windows NT 10.0; Win64; x64) AppleWebKit/537.36 (KHTML, like Gecko) Chrome/130.0.0.0 Safari/537.36 QuarkPC/4.2.0.417" version="28.0.1">
  <diagram name="第 1 页" id="RLluNRR_chcxaRJxamJ6">
    <mxGraphModel dx="1523" dy="1007" grid="1" gridSize="10" guides="1" tooltips="1" connect="1" arrows="1" fold="1" page="1" pageScale="1" pageWidth="827" pageHeight="1169" math="0" shadow="0">
      <root>
        <mxCell id="0" />
        <mxCell id="1" parent="0" />
        <mxCell id="Y_w0vlbZUDAO63ayXh8l-17" value="" style="group" vertex="1" connectable="0" parent="1">
          <mxGeometry x="20" y="200" width="570" height="919" as="geometry" />
        </mxCell>
        <mxCell id="Y_w0vlbZUDAO63ayXh8l-1" value="故障报告：操作人员停止设备运行，关闭电源，向施工队长报告故障信息" style="whiteSpace=wrap;strokeWidth=2;" vertex="1" parent="Y_w0vlbZUDAO63ayXh8l-17">
          <mxGeometry x="155" width="260" height="82" as="geometry" />
        </mxCell>
        <mxCell id="Y_w0vlbZUDAO63ayXh8l-2" value="故障评估：施工队长通知技术负责人及设备管理员现场评估" style="whiteSpace=wrap;strokeWidth=2;" vertex="1" parent="Y_w0vlbZUDAO63ayXh8l-17">
          <mxGeometry x="155" y="132" width="260" height="78" as="geometry" />
        </mxCell>
        <mxCell id="Y_w0vlbZUDAO63ayXh8l-3" value="故障是否可在30分钟内修复?" style="rhombus;strokeWidth=2;whiteSpace=wrap;" vertex="1" parent="Y_w0vlbZUDAO63ayXh8l-17">
          <mxGeometry x="159" y="270" width="253" height="107" as="geometry" />
        </mxCell>
        <mxCell id="Y_w0vlbZUDAO63ayXh8l-4" value="技术负责人组织抢修，安全员设置警戒" style="whiteSpace=wrap;strokeWidth=2;" vertex="1" parent="Y_w0vlbZUDAO63ayXh8l-17">
          <mxGeometry y="449" width="260" height="78" as="geometry" />
        </mxCell>
        <mxCell id="Y_w0vlbZUDAO63ayXh8l-5" value="技术负责人联系拖车，告知位置及撤离路线" style="whiteSpace=wrap;strokeWidth=2;" vertex="1" parent="Y_w0vlbZUDAO63ayXh8l-17">
          <mxGeometry x="310" y="449" width="260" height="78" as="geometry" />
        </mxCell>
        <mxCell id="Y_w0vlbZUDAO63ayXh8l-6" value="设备拖离：拖车在安全员引导下将设备拖离至指定停放区，施工队长全程跟随" style="whiteSpace=wrap;strokeWidth=2;" vertex="1" parent="Y_w0vlbZUDAO63ayXh8l-17">
          <mxGeometry x="155" y="577" width="260" height="83" as="geometry" />
        </mxCell>
        <mxCell id="Y_w0vlbZUDAO63ayXh8l-7" value="现场清理：安全员组织清理现场，技术负责人填写故障处置记录" style="whiteSpace=wrap;strokeWidth=2;" vertex="1" parent="Y_w0vlbZUDAO63ayXh8l-17">
          <mxGeometry x="155" y="710" width="260" height="81" as="geometry" />
        </mxCell>
        <mxCell id="Y_w0vlbZUDAO63ayXh8l-8" value="报告与总结：项目经理提交应急处置报告，领导小组召开总结会议分析原因并制定预防措施" style="whiteSpace=wrap;strokeWidth=2;" vertex="1" parent="Y_w0vlbZUDAO63ayXh8l-17">
          <mxGeometry x="155.5" y="830" width="260" height="89" as="geometry" />
        </mxCell>
        <mxCell id="Y_w0vlbZUDAO63ayXh8l-9" value="" style="curved=1;startArrow=none;endArrow=block;exitX=0.5;exitY=1;entryX=0.5;entryY=0;rounded=0;" edge="1" parent="Y_w0vlbZUDAO63ayXh8l-17" source="Y_w0vlbZUDAO63ayXh8l-1" target="Y_w0vlbZUDAO63ayXh8l-2">
          <mxGeometry relative="1" as="geometry">
            <Array as="points" />
          </mxGeometry>
        </mxCell>
        <mxCell id="Y_w0vlbZUDAO63ayXh8l-10" value="" style="curved=1;startArrow=none;endArrow=block;exitX=0.5;exitY=1;entryX=0.5;entryY=0;rounded=0;" edge="1" parent="Y_w0vlbZUDAO63ayXh8l-17" source="Y_w0vlbZUDAO63ayXh8l-2" target="Y_w0vlbZUDAO63ayXh8l-3">
          <mxGeometry relative="1" as="geometry">
            <Array as="points" />
          </mxGeometry>
        </mxCell>
        <mxCell id="Y_w0vlbZUDAO63ayXh8l-11" value="是" style="curved=1;startArrow=none;endArrow=block;exitX=0.02;exitY=1;entryX=0.5;entryY=0;rounded=0;" edge="1" parent="Y_w0vlbZUDAO63ayXh8l-17" source="Y_w0vlbZUDAO63ayXh8l-3" target="Y_w0vlbZUDAO63ayXh8l-4">
          <mxGeometry relative="1" as="geometry">
            <Array as="points">
              <mxPoint x="130" y="413" />
            </Array>
          </mxGeometry>
        </mxCell>
        <mxCell id="Y_w0vlbZUDAO63ayXh8l-12" value="否" style="curved=1;startArrow=none;endArrow=block;exitX=0.97;exitY=1;entryX=0.5;entryY=0;rounded=0;" edge="1" parent="Y_w0vlbZUDAO63ayXh8l-17" source="Y_w0vlbZUDAO63ayXh8l-3" target="Y_w0vlbZUDAO63ayXh8l-5">
          <mxGeometry relative="1" as="geometry">
            <Array as="points">
              <mxPoint x="440" y="413" />
            </Array>
          </mxGeometry>
        </mxCell>
        <mxCell id="Y_w0vlbZUDAO63ayXh8l-13" value="" style="curved=1;startArrow=none;endArrow=block;exitX=0.5;exitY=1;entryX=0.1;entryY=0;rounded=0;" edge="1" parent="Y_w0vlbZUDAO63ayXh8l-17" source="Y_w0vlbZUDAO63ayXh8l-4" target="Y_w0vlbZUDAO63ayXh8l-6">
          <mxGeometry relative="1" as="geometry">
            <Array as="points">
              <mxPoint x="130" y="552" />
            </Array>
          </mxGeometry>
        </mxCell>
        <mxCell id="Y_w0vlbZUDAO63ayXh8l-14" value="" style="curved=1;startArrow=none;endArrow=block;exitX=0.5;exitY=1;entryX=0.9;entryY=0;rounded=0;" edge="1" parent="Y_w0vlbZUDAO63ayXh8l-17" source="Y_w0vlbZUDAO63ayXh8l-5" target="Y_w0vlbZUDAO63ayXh8l-6">
          <mxGeometry relative="1" as="geometry">
            <Array as="points">
              <mxPoint x="440" y="552" />
            </Array>
          </mxGeometry>
        </mxCell>
        <mxCell id="Y_w0vlbZUDAO63ayXh8l-15" value="" style="curved=1;startArrow=none;endArrow=block;exitX=0.5;exitY=1;entryX=0.5;entryY=0;rounded=0;" edge="1" parent="Y_w0vlbZUDAO63ayXh8l-17" source="Y_w0vlbZUDAO63ayXh8l-6" target="Y_w0vlbZUDAO63ayXh8l-7">
          <mxGeometry relative="1" as="geometry">
            <Array as="points" />
          </mxGeometry>
        </mxCell>
        <mxCell id="Y_w0vlbZUDAO63ayXh8l-16" value="" style="curved=1;startArrow=none;endArrow=block;exitX=0.5;exitY=1;entryX=0.5;entryY=0;rounded=0;" edge="1" parent="Y_w0vlbZUDAO63ayXh8l-17" source="Y_w0vlbZUDAO63ayXh8l-7" target="Y_w0vlbZUDAO63ayXh8l-8">
          <mxGeometry relative="1" as="geometry">
            <Array as="points" />
          </mxGeometry>
        </mxCell>
      </root>
    </mxGraphModel>
  </diagram>
</mxfile>
